<mxfile host="app.diagrams.net" agent="Mozilla/5.0 (X11; Linux x86_64; rv:128.0) Gecko/20100101 Firefox/128.0" version="24.7.6">
  <diagram name="Page-1" id="WF6F5C6bckJqQvXXxWRd">
    <mxGraphModel dx="1195" dy="793" grid="1" gridSize="10" guides="1" tooltips="1" connect="1" arrows="1" fold="1" page="1" pageScale="1" pageWidth="850" pageHeight="1100" math="0" shadow="0">
      <root>
        <mxCell id="0" />
        <mxCell id="1" parent="0" />
        <mxCell id="kcBdAPoPOE_3zGStWddK-30" style="edgeStyle=orthogonalEdgeStyle;rounded=0;orthogonalLoop=1;jettySize=auto;html=1;exitX=0.5;exitY=1;exitDx=0;exitDy=0;entryX=0.5;entryY=0;entryDx=0;entryDy=0;" edge="1" parent="1" source="kcBdAPoPOE_3zGStWddK-22" target="kcBdAPoPOE_3zGStWddK-26">
          <mxGeometry relative="1" as="geometry">
            <Array as="points">
              <mxPoint x="260" y="470" />
              <mxPoint x="380" y="470" />
            </Array>
          </mxGeometry>
        </mxCell>
        <mxCell id="kcBdAPoPOE_3zGStWddK-24" style="rounded=0;orthogonalLoop=1;jettySize=auto;html=1;exitX=0;exitY=1;exitDx=0;exitDy=0;entryX=0.5;entryY=0;entryDx=0;entryDy=0;" edge="1" parent="1" source="kcBdAPoPOE_3zGStWddK-20" target="kcBdAPoPOE_3zGStWddK-21">
          <mxGeometry relative="1" as="geometry" />
        </mxCell>
        <mxCell id="kcBdAPoPOE_3zGStWddK-33" style="edgeStyle=orthogonalEdgeStyle;rounded=0;orthogonalLoop=1;jettySize=auto;html=1;exitX=0.5;exitY=1;exitDx=0;exitDy=0;entryX=0.5;entryY=0;entryDx=0;entryDy=0;fillColor=#f5f5f5;strokeColor=#CCCCCC;fontColor=#77767b;" edge="1" parent="1" source="kcBdAPoPOE_3zGStWddK-20" target="kcBdAPoPOE_3zGStWddK-27">
          <mxGeometry relative="1" as="geometry">
            <Array as="points">
              <mxPoint x="380" y="470" />
              <mxPoint x="530" y="470" />
            </Array>
          </mxGeometry>
        </mxCell>
        <mxCell id="kcBdAPoPOE_3zGStWddK-34" style="edgeStyle=orthogonalEdgeStyle;rounded=0;orthogonalLoop=1;jettySize=auto;html=1;exitX=0.5;exitY=1;exitDx=0;exitDy=0;entryX=0.5;entryY=0;entryDx=0;entryDy=0;fillColor=#f5f5f5;strokeColor=#CCCCCC;fontColor=#77767b;" edge="1" parent="1">
          <mxGeometry relative="1" as="geometry">
            <mxPoint x="380" y="160" as="sourcePoint" />
            <mxPoint x="680" y="510" as="targetPoint" />
            <Array as="points">
              <mxPoint x="380" y="470" />
              <mxPoint x="680" y="470" />
            </Array>
          </mxGeometry>
        </mxCell>
        <mxCell id="kcBdAPoPOE_3zGStWddK-20" value="wgpu" style="ellipse;whiteSpace=wrap;html=1;" vertex="1" parent="1">
          <mxGeometry x="320" y="80" width="120" height="80" as="geometry" />
        </mxCell>
        <mxCell id="kcBdAPoPOE_3zGStWddK-23" value="" style="edgeStyle=orthogonalEdgeStyle;rounded=0;orthogonalLoop=1;jettySize=auto;html=1;" edge="1" parent="1" source="kcBdAPoPOE_3zGStWddK-21" target="kcBdAPoPOE_3zGStWddK-22">
          <mxGeometry relative="1" as="geometry" />
        </mxCell>
        <mxCell id="kcBdAPoPOE_3zGStWddK-21" value="WebGPU" style="ellipse;whiteSpace=wrap;html=1;" vertex="1" parent="1">
          <mxGeometry x="200" y="220" width="120" height="80" as="geometry" />
        </mxCell>
        <mxCell id="kcBdAPoPOE_3zGStWddK-22" value="&lt;div&gt;Navegadores&lt;/div&gt;&lt;div&gt;&lt;br&gt;&lt;/div&gt;&lt;div&gt;(Chromium, Firefox)&lt;br&gt;&lt;/div&gt;" style="ellipse;whiteSpace=wrap;html=1;" vertex="1" parent="1">
          <mxGeometry x="200" y="340" width="120" height="80" as="geometry" />
        </mxCell>
        <mxCell id="kcBdAPoPOE_3zGStWddK-26" value="&lt;div&gt;Vulkan&lt;/div&gt;&lt;div&gt;&lt;br&gt;&lt;/div&gt;&lt;div&gt;(Linux, Android)&lt;br&gt;&lt;/div&gt;" style="ellipse;whiteSpace=wrap;html=1;" vertex="1" parent="1">
          <mxGeometry x="320" y="510" width="120" height="80" as="geometry" />
        </mxCell>
        <mxCell id="kcBdAPoPOE_3zGStWddK-39" value="" style="edgeStyle=orthogonalEdgeStyle;rounded=0;orthogonalLoop=1;jettySize=auto;html=1;strokeColor=#cccccc;" edge="1" parent="1" source="kcBdAPoPOE_3zGStWddK-27" target="kcBdAPoPOE_3zGStWddK-37">
          <mxGeometry relative="1" as="geometry" />
        </mxCell>
        <mxCell id="kcBdAPoPOE_3zGStWddK-27" value="&lt;div&gt;*DX11&lt;/div&gt;&lt;div&gt;&lt;br&gt;&lt;/div&gt;&lt;div&gt;(Windows)&lt;br&gt;&lt;/div&gt;" style="ellipse;whiteSpace=wrap;html=1;fillColor=#f5f5f5;fontColor=#77767b;strokeColor=#CCCCCC;" vertex="1" parent="1">
          <mxGeometry x="470" y="510" width="120" height="80" as="geometry" />
        </mxCell>
        <mxCell id="kcBdAPoPOE_3zGStWddK-40" style="edgeStyle=orthogonalEdgeStyle;rounded=0;orthogonalLoop=1;jettySize=auto;html=1;exitX=0.5;exitY=1;exitDx=0;exitDy=0;entryX=0.5;entryY=0;entryDx=0;entryDy=0;strokeColor=#cccccc;" edge="1" parent="1" source="kcBdAPoPOE_3zGStWddK-28" target="kcBdAPoPOE_3zGStWddK-37">
          <mxGeometry relative="1" as="geometry" />
        </mxCell>
        <mxCell id="kcBdAPoPOE_3zGStWddK-28" value="*Metal&lt;div&gt;&lt;br&gt;&lt;/div&gt;&lt;div&gt;(MacOS, iOS)&lt;br&gt;&lt;/div&gt;" style="ellipse;whiteSpace=wrap;html=1;fillColor=#f5f5f5;fontColor=#77767b;strokeColor=#CCCCCC;" vertex="1" parent="1">
          <mxGeometry x="620" y="510" width="120" height="80" as="geometry" />
        </mxCell>
        <mxCell id="kcBdAPoPOE_3zGStWddK-36" value="*Plataformas que no se verificarÃ¡n" style="text;html=1;align=center;verticalAlign=middle;resizable=0;points=[];autosize=1;strokeColor=none;fillColor=none;fontColor=#666666;fontSize=9;" vertex="1" parent="1">
          <mxGeometry x="500" y="450" width="180" height="20" as="geometry" />
        </mxCell>
        <mxCell id="kcBdAPoPOE_3zGStWddK-29" style="edgeStyle=orthogonalEdgeStyle;rounded=0;orthogonalLoop=1;jettySize=auto;html=1;exitX=0.5;exitY=1;exitDx=0;exitDy=0;entryX=0.5;entryY=0;entryDx=0;entryDy=0;" edge="1" parent="1" source="kcBdAPoPOE_3zGStWddK-20" target="kcBdAPoPOE_3zGStWddK-26">
          <mxGeometry relative="1" as="geometry" />
        </mxCell>
        <mxCell id="kcBdAPoPOE_3zGStWddK-37" value="GPU" style="ellipse;whiteSpace=wrap;html=1;" vertex="1" parent="1">
          <mxGeometry x="470" y="670" width="120" height="80" as="geometry" />
        </mxCell>
        <mxCell id="kcBdAPoPOE_3zGStWddK-38" style="edgeStyle=orthogonalEdgeStyle;rounded=0;orthogonalLoop=1;jettySize=auto;html=1;exitX=0.5;exitY=1;exitDx=0;exitDy=0;entryX=0.5;entryY=0;entryDx=0;entryDy=0;" edge="1" parent="1" source="kcBdAPoPOE_3zGStWddK-26" target="kcBdAPoPOE_3zGStWddK-37">
          <mxGeometry relative="1" as="geometry" />
        </mxCell>
      </root>
    </mxGraphModel>
  </diagram>
</mxfile>
